<mxfile host="app.diagrams.net" modified="2023-06-27T20:31:28.736Z" agent="Mozilla/5.0 (Windows NT 10.0; Win64; x64) AppleWebKit/537.36 (KHTML, like Gecko) Chrome/114.0.0.0 Safari/537.36" version="21.5.1" etag="b_e08sTBe-_AiH5ajG0K" type="github">
  <diagram name="Page-1" id="kW5z09n5GGzJ1cjU40yl">
    <mxGraphModel>
      <root>
        <mxCell id="0" />
        <mxCell id="1" parent="0" />
      </root>
    </mxGraphModel>
  </diagram>
</mxfile>
